<?xml version="1.0" standalone="no"?>
<!DOCTYPE svg PUBLIC "-//W3C//DTD SVG 20010904//EN"
 "http://www.w3.org/TR/2001/REC-SVG-20010904/DTD/svg10.dtd">
<svg version="1.0" xmlns="http://www.w3.org/2000/svg"
 width="231.000000pt" height="231.000000pt" viewBox="0 0 231.000000 231.000000"
 preserveAspectRatio="xMidYMid meet">
<metadata>
Created by potrace 1.14, written by Peter Selinger 2001-2017
</metadata>
<g transform="translate(0.000000,231.000000) scale(0.100000,-0.100000)"
fill="#000000" stroke="none">
<path d="M1130 1940 c-12 -11 -27 -17 -31 -14 -5 3 -9 1 -9 -5 0 -11 -39 -27
-55 -22 -5 1 -7 -1 -3 -5 8 -7 -51 -50 -64 -46 -3 1 -12 -5 -18 -13 -7 -8 -18
-15 -24 -15 -6 -1 -24 -11 -40 -24 -16 -14 -36 -22 -44 -18 -9 3 -13 1 -9 -5
4 -6 -8 -17 -26 -24 -17 -7 -41 -21 -51 -31 -19 -17 -31 -22 -48 -19 -5 0 -8
-4 -8 -10 0 -5 -13 -15 -30 -20 -16 -6 -27 -15 -24 -20 3 -5 -2 -9 -11 -9 -16
0 -47 -16 -77 -40 -10 -8 -21 -14 -24 -12 -2 1 -12 -4 -20 -13 -9 -8 -19 -13
-23 -11 -12 8 -27 -27 -26 -59 0 -16 -4 -33 -10 -37 -6 -5 -6 -8 0 -8 6 0 10
-124 9 -352 -1 -194 3 -360 7 -368 5 -8 9 -11 9 -7 0 5 13 -1 28 -12 16 -11
35 -21 42 -23 15 -3 30 -13 55 -36 8 -7 19 -10 25 -7 5 3 10 1 10 -4 0 -6 7
-11 15 -11 8 0 15 -4 15 -10 0 -5 6 -10 14 -10 8 0 16 -4 18 -9 2 -5 10 -11
18 -13 8 -2 17 -6 20 -9 3 -3 41 -25 85 -49 44 -24 82 -46 85 -50 3 -3 21 -14
40 -23 19 -9 48 -25 64 -36 17 -11 33 -18 38 -15 4 3 8 1 8 -3 0 -5 22 -21 48
-35 l48 -26 49 30 c28 16 62 34 78 41 15 6 27 15 27 19 0 4 7 8 15 8 8 0 15 5
15 11 0 5 4 8 9 4 5 -3 12 -1 16 5 4 6 11 8 16 5 5 -4 9 -1 9 5 0 6 16 18 35
26 19 8 35 19 35 26 0 6 3 9 6 5 3 -3 24 5 45 19 21 13 42 24 47 24 5 0 17 9
27 20 9 10 20 19 24 18 10 -2 45 15 59 29 8 7 18 11 23 8 5 -4 9 -2 9 3 0 5
14 15 30 22 17 7 30 17 30 23 0 6 3 8 6 4 4 -3 23 5 43 19 l36 24 1 83 c0 49
-4 85 -10 89 -7 5 -7 8 -1 8 7 0 11 76 10 228 -1 143 3 232 10 241 7 11 7 13
-1 8 -8 -5 -11 16 -9 73 3 78 3 79 -25 92 -16 7 -26 17 -23 22 4 5 -1 7 -10 3
-9 -3 -18 0 -21 9 -3 8 -10 14 -16 14 -6 0 -55 26 -108 57 -53 32 -99 58 -102
58 -3 0 -18 9 -35 20 -16 12 -43 27 -60 35 -16 8 -32 17 -35 20 -6 6 -43 27
-95 54 -22 12 -42 23 -45 26 -11 11 -46 31 -72 41 -16 6 -28 15 -28 20 0 15
-15 10 -40 -11z"/>
</g>
</svg>
